<mxfile host="app.diagrams.net" modified="2024-02-27T06:16:40.310Z" agent="Mozilla/5.0 (Windows NT 10.0; Win64; x64) AppleWebKit/537.36 (KHTML, like Gecko) Chrome/122.0.0.0 Safari/537.36" etag="gBrS4Pro4QyCBMu_zzAP" version="23.1.7" type="device">
  <diagram id="C5RBs43oDa-KdzZeNtuy" name="Page-1">
    <mxGraphModel dx="978" dy="607" grid="1" gridSize="10" guides="1" tooltips="1" connect="1" arrows="1" fold="1" page="1" pageScale="1" pageWidth="827" pageHeight="1169" math="0" shadow="0">
      <root>
        <mxCell id="WIyWlLk6GJQsqaUBKTNV-0" />
        <mxCell id="WIyWlLk6GJQsqaUBKTNV-1" parent="WIyWlLk6GJQsqaUBKTNV-0" />
        <mxCell id="WIyWlLk6GJQsqaUBKTNV-2" value="" style="rounded=0;html=1;jettySize=auto;orthogonalLoop=1;fontSize=11;endArrow=block;endFill=0;endSize=8;strokeWidth=1;shadow=0;labelBackgroundColor=none;edgeStyle=orthogonalEdgeStyle;" parent="WIyWlLk6GJQsqaUBKTNV-1" source="WIyWlLk6GJQsqaUBKTNV-3" target="WIyWlLk6GJQsqaUBKTNV-6" edge="1">
          <mxGeometry relative="1" as="geometry" />
        </mxCell>
        <mxCell id="WIyWlLk6GJQsqaUBKTNV-3" value="Landing Page" style="rounded=1;whiteSpace=wrap;html=1;fontSize=12;glass=0;strokeWidth=1;shadow=0;" parent="WIyWlLk6GJQsqaUBKTNV-1" vertex="1">
          <mxGeometry x="470" y="80" width="120" height="40" as="geometry" />
        </mxCell>
        <mxCell id="2EJG6AyKctbjGO9MTDLc-4" style="edgeStyle=orthogonalEdgeStyle;rounded=0;orthogonalLoop=1;jettySize=auto;html=1;entryX=1;entryY=0.5;entryDx=0;entryDy=0;" parent="WIyWlLk6GJQsqaUBKTNV-1" source="WIyWlLk6GJQsqaUBKTNV-6" target="2EJG6AyKctbjGO9MTDLc-16" edge="1">
          <mxGeometry relative="1" as="geometry">
            <mxPoint x="548.53" y="260" as="targetPoint" />
          </mxGeometry>
        </mxCell>
        <mxCell id="2EJG6AyKctbjGO9MTDLc-6" value="Register" style="edgeLabel;html=1;align=center;verticalAlign=middle;resizable=0;points=[];" parent="2EJG6AyKctbjGO9MTDLc-4" vertex="1" connectable="0">
          <mxGeometry x="-0.0097" y="1" relative="1" as="geometry">
            <mxPoint as="offset" />
          </mxGeometry>
        </mxCell>
        <mxCell id="2EJG6AyKctbjGO9MTDLc-28" style="edgeStyle=orthogonalEdgeStyle;rounded=0;orthogonalLoop=1;jettySize=auto;html=1;" parent="WIyWlLk6GJQsqaUBKTNV-1" source="WIyWlLk6GJQsqaUBKTNV-6" target="2EJG6AyKctbjGO9MTDLc-15" edge="1">
          <mxGeometry relative="1" as="geometry" />
        </mxCell>
        <mxCell id="WIyWlLk6GJQsqaUBKTNV-6" value="Login/&lt;br&gt;Register" style="rhombus;whiteSpace=wrap;html=1;shadow=0;fontFamily=Helvetica;fontSize=12;align=center;strokeWidth=1;spacing=6;spacingTop=-4;" parent="WIyWlLk6GJQsqaUBKTNV-1" vertex="1">
          <mxGeometry x="658.53" y="140" width="100" height="80" as="geometry" />
        </mxCell>
        <mxCell id="2EJG6AyKctbjGO9MTDLc-12" style="edgeStyle=orthogonalEdgeStyle;rounded=0;orthogonalLoop=1;jettySize=auto;html=1;" parent="WIyWlLk6GJQsqaUBKTNV-1" source="2EJG6AyKctbjGO9MTDLc-8" target="2EJG6AyKctbjGO9MTDLc-11" edge="1">
          <mxGeometry relative="1" as="geometry" />
        </mxCell>
        <mxCell id="2EJG6AyKctbjGO9MTDLc-8" value="Input&lt;br&gt;-Username&lt;br&gt;-Password" style="shape=parallelogram;perimeter=parallelogramPerimeter;whiteSpace=wrap;html=1;fixedSize=1;" parent="WIyWlLk6GJQsqaUBKTNV-1" vertex="1">
          <mxGeometry x="440" y="255" width="120" height="60" as="geometry" />
        </mxCell>
        <mxCell id="2EJG6AyKctbjGO9MTDLc-25" style="edgeStyle=orthogonalEdgeStyle;rounded=0;orthogonalLoop=1;jettySize=auto;html=1;" parent="WIyWlLk6GJQsqaUBKTNV-1" source="2EJG6AyKctbjGO9MTDLc-9" target="2EJG6AyKctbjGO9MTDLc-23" edge="1">
          <mxGeometry relative="1" as="geometry" />
        </mxCell>
        <mxCell id="2EJG6AyKctbjGO9MTDLc-9" value="Input&lt;br&gt;-Username&lt;br&gt;-Password" style="shape=parallelogram;perimeter=parallelogramPerimeter;whiteSpace=wrap;html=1;fixedSize=1;" parent="WIyWlLk6GJQsqaUBKTNV-1" vertex="1">
          <mxGeometry x="648.53" y="335" width="120" height="60" as="geometry" />
        </mxCell>
        <mxCell id="2EJG6AyKctbjGO9MTDLc-19" style="edgeStyle=orthogonalEdgeStyle;rounded=0;orthogonalLoop=1;jettySize=auto;html=1;" parent="WIyWlLk6GJQsqaUBKTNV-1" source="2EJG6AyKctbjGO9MTDLc-11" target="2EJG6AyKctbjGO9MTDLc-13" edge="1">
          <mxGeometry relative="1" as="geometry" />
        </mxCell>
        <mxCell id="2EJG6AyKctbjGO9MTDLc-11" value="processUserRegister" style="rounded=1;whiteSpace=wrap;html=1;fontSize=12;glass=0;strokeWidth=1;shadow=0;" parent="WIyWlLk6GJQsqaUBKTNV-1" vertex="1">
          <mxGeometry x="440" y="355" width="120" height="40" as="geometry" />
        </mxCell>
        <mxCell id="2EJG6AyKctbjGO9MTDLc-29" style="edgeStyle=orthogonalEdgeStyle;rounded=0;orthogonalLoop=1;jettySize=auto;html=1;entryX=0;entryY=0.5;entryDx=0;entryDy=0;" parent="WIyWlLk6GJQsqaUBKTNV-1" source="2EJG6AyKctbjGO9MTDLc-13" target="2EJG6AyKctbjGO9MTDLc-15" edge="1">
          <mxGeometry relative="1" as="geometry" />
        </mxCell>
        <mxCell id="2EJG6AyKctbjGO9MTDLc-30" value="Yes" style="edgeLabel;html=1;align=center;verticalAlign=middle;resizable=0;points=[];" parent="2EJG6AyKctbjGO9MTDLc-29" vertex="1" connectable="0">
          <mxGeometry x="-0.1479" y="1" relative="1" as="geometry">
            <mxPoint as="offset" />
          </mxGeometry>
        </mxCell>
        <mxCell id="2EJG6AyKctbjGO9MTDLc-269" style="edgeStyle=orthogonalEdgeStyle;rounded=0;orthogonalLoop=1;jettySize=auto;html=1;entryX=0;entryY=0.5;entryDx=0;entryDy=0;" parent="WIyWlLk6GJQsqaUBKTNV-1" source="2EJG6AyKctbjGO9MTDLc-13" target="2EJG6AyKctbjGO9MTDLc-16" edge="1">
          <mxGeometry relative="1" as="geometry">
            <Array as="points">
              <mxPoint x="420" y="465" />
              <mxPoint x="420" y="180" />
            </Array>
          </mxGeometry>
        </mxCell>
        <mxCell id="2EJG6AyKctbjGO9MTDLc-270" value="No" style="edgeLabel;html=1;align=center;verticalAlign=middle;resizable=0;points=[];" parent="2EJG6AyKctbjGO9MTDLc-269" vertex="1" connectable="0">
          <mxGeometry x="0.204" y="2" relative="1" as="geometry">
            <mxPoint as="offset" />
          </mxGeometry>
        </mxCell>
        <mxCell id="2EJG6AyKctbjGO9MTDLc-13" value="Valid?" style="rhombus;whiteSpace=wrap;html=1;shadow=0;fontFamily=Helvetica;fontSize=12;align=center;strokeWidth=1;spacing=6;spacingTop=-4;" parent="WIyWlLk6GJQsqaUBKTNV-1" vertex="1">
          <mxGeometry x="450" y="425" width="100" height="80" as="geometry" />
        </mxCell>
        <mxCell id="2EJG6AyKctbjGO9MTDLc-18" style="edgeStyle=orthogonalEdgeStyle;rounded=0;orthogonalLoop=1;jettySize=auto;html=1;entryX=0.5;entryY=0;entryDx=0;entryDy=0;" parent="WIyWlLk6GJQsqaUBKTNV-1" source="2EJG6AyKctbjGO9MTDLc-15" target="2EJG6AyKctbjGO9MTDLc-9" edge="1">
          <mxGeometry relative="1" as="geometry" />
        </mxCell>
        <mxCell id="2EJG6AyKctbjGO9MTDLc-15" value="Login Page" style="rounded=1;whiteSpace=wrap;html=1;fontSize=12;glass=0;strokeWidth=1;shadow=0;" parent="WIyWlLk6GJQsqaUBKTNV-1" vertex="1">
          <mxGeometry x="648.53" y="260" width="120" height="40" as="geometry" />
        </mxCell>
        <mxCell id="2EJG6AyKctbjGO9MTDLc-17" style="edgeStyle=orthogonalEdgeStyle;rounded=0;orthogonalLoop=1;jettySize=auto;html=1;" parent="WIyWlLk6GJQsqaUBKTNV-1" source="2EJG6AyKctbjGO9MTDLc-16" target="2EJG6AyKctbjGO9MTDLc-8" edge="1">
          <mxGeometry relative="1" as="geometry" />
        </mxCell>
        <mxCell id="2EJG6AyKctbjGO9MTDLc-16" value="Register Page" style="rounded=1;whiteSpace=wrap;html=1;fontSize=12;glass=0;strokeWidth=1;shadow=0;" parent="WIyWlLk6GJQsqaUBKTNV-1" vertex="1">
          <mxGeometry x="440" y="160" width="120" height="40" as="geometry" />
        </mxCell>
        <mxCell id="2EJG6AyKctbjGO9MTDLc-26" style="edgeStyle=orthogonalEdgeStyle;rounded=0;orthogonalLoop=1;jettySize=auto;html=1;" parent="WIyWlLk6GJQsqaUBKTNV-1" source="2EJG6AyKctbjGO9MTDLc-23" target="2EJG6AyKctbjGO9MTDLc-24" edge="1">
          <mxGeometry relative="1" as="geometry" />
        </mxCell>
        <mxCell id="2EJG6AyKctbjGO9MTDLc-23" value="processUserLogin" style="rounded=1;whiteSpace=wrap;html=1;fontSize=12;glass=0;strokeWidth=1;shadow=0;" parent="WIyWlLk6GJQsqaUBKTNV-1" vertex="1">
          <mxGeometry x="648.53" y="435" width="120" height="40" as="geometry" />
        </mxCell>
        <mxCell id="2EJG6AyKctbjGO9MTDLc-27" value="No" style="edgeStyle=orthogonalEdgeStyle;rounded=0;orthogonalLoop=1;jettySize=auto;html=1;exitX=1;exitY=0.5;exitDx=0;exitDy=0;entryX=1;entryY=0.5;entryDx=0;entryDy=0;" parent="WIyWlLk6GJQsqaUBKTNV-1" source="2EJG6AyKctbjGO9MTDLc-24" target="2EJG6AyKctbjGO9MTDLc-15" edge="1">
          <mxGeometry x="0.1333" relative="1" as="geometry">
            <Array as="points">
              <mxPoint x="789" y="610" />
              <mxPoint x="789" y="280" />
            </Array>
            <mxPoint as="offset" />
          </mxGeometry>
        </mxCell>
        <mxCell id="2EJG6AyKctbjGO9MTDLc-273" style="edgeStyle=orthogonalEdgeStyle;rounded=0;orthogonalLoop=1;jettySize=auto;html=1;" parent="WIyWlLk6GJQsqaUBKTNV-1" source="2EJG6AyKctbjGO9MTDLc-24" target="2EJG6AyKctbjGO9MTDLc-37" edge="1">
          <mxGeometry relative="1" as="geometry">
            <Array as="points">
              <mxPoint x="380" y="609.87" />
              <mxPoint x="380" y="609.87" />
            </Array>
          </mxGeometry>
        </mxCell>
        <mxCell id="2EJG6AyKctbjGO9MTDLc-274" value="Yes" style="edgeLabel;html=1;align=center;verticalAlign=middle;resizable=0;points=[];" parent="2EJG6AyKctbjGO9MTDLc-273" vertex="1" connectable="0">
          <mxGeometry x="-0.0549" relative="1" as="geometry">
            <mxPoint x="1" as="offset" />
          </mxGeometry>
        </mxCell>
        <mxCell id="2EJG6AyKctbjGO9MTDLc-24" value="Valid?" style="rhombus;whiteSpace=wrap;html=1;shadow=0;fontFamily=Helvetica;fontSize=12;align=center;strokeWidth=1;spacing=6;spacingTop=-4;" parent="WIyWlLk6GJQsqaUBKTNV-1" vertex="1">
          <mxGeometry x="658.53" y="570" width="100" height="80" as="geometry" />
        </mxCell>
        <mxCell id="2EJG6AyKctbjGO9MTDLc-292" style="edgeStyle=orthogonalEdgeStyle;rounded=0;orthogonalLoop=1;jettySize=auto;html=1;entryX=0.5;entryY=0;entryDx=0;entryDy=0;" parent="WIyWlLk6GJQsqaUBKTNV-1" source="2EJG6AyKctbjGO9MTDLc-37" target="2EJG6AyKctbjGO9MTDLc-41" edge="1">
          <mxGeometry relative="1" as="geometry" />
        </mxCell>
        <mxCell id="2EJG6AyKctbjGO9MTDLc-37" value="User Page" style="rounded=1;whiteSpace=wrap;html=1;fontSize=12;glass=0;strokeWidth=1;shadow=0;" parent="WIyWlLk6GJQsqaUBKTNV-1" vertex="1">
          <mxGeometry x="186.21" y="600.87" width="120" height="40" as="geometry" />
        </mxCell>
        <mxCell id="2EJG6AyKctbjGO9MTDLc-271" style="edgeStyle=orthogonalEdgeStyle;rounded=0;orthogonalLoop=1;jettySize=auto;html=1;entryX=0;entryY=0.5;entryDx=0;entryDy=0;" parent="WIyWlLk6GJQsqaUBKTNV-1" source="2EJG6AyKctbjGO9MTDLc-41" target="2EJG6AyKctbjGO9MTDLc-48" edge="1">
          <mxGeometry relative="1" as="geometry" />
        </mxCell>
        <mxCell id="2EJG6AyKctbjGO9MTDLc-275" value="Work" style="edgeLabel;html=1;align=center;verticalAlign=middle;resizable=0;points=[];" parent="2EJG6AyKctbjGO9MTDLc-271" vertex="1" connectable="0">
          <mxGeometry x="-0.0997" y="2" relative="1" as="geometry">
            <mxPoint as="offset" />
          </mxGeometry>
        </mxCell>
        <mxCell id="2EJG6AyKctbjGO9MTDLc-293" style="edgeStyle=orthogonalEdgeStyle;rounded=0;orthogonalLoop=1;jettySize=auto;html=1;entryX=0;entryY=0.5;entryDx=0;entryDy=0;" parent="WIyWlLk6GJQsqaUBKTNV-1" source="2EJG6AyKctbjGO9MTDLc-41" target="2EJG6AyKctbjGO9MTDLc-82" edge="1">
          <mxGeometry relative="1" as="geometry">
            <Array as="points">
              <mxPoint x="96" y="770.87" />
            </Array>
          </mxGeometry>
        </mxCell>
        <mxCell id="2EJG6AyKctbjGO9MTDLc-312" value="Owned Asset" style="edgeLabel;html=1;align=center;verticalAlign=middle;resizable=0;points=[];" parent="2EJG6AyKctbjGO9MTDLc-293" vertex="1" connectable="0">
          <mxGeometry x="0.2251" relative="1" as="geometry">
            <mxPoint x="-1" as="offset" />
          </mxGeometry>
        </mxCell>
        <mxCell id="2EJG6AyKctbjGO9MTDLc-294" style="edgeStyle=orthogonalEdgeStyle;rounded=0;orthogonalLoop=1;jettySize=auto;html=1;entryX=0;entryY=0.5;entryDx=0;entryDy=0;" parent="WIyWlLk6GJQsqaUBKTNV-1" source="2EJG6AyKctbjGO9MTDLc-41" target="2EJG6AyKctbjGO9MTDLc-55" edge="1">
          <mxGeometry relative="1" as="geometry">
            <Array as="points">
              <mxPoint x="96" y="820.87" />
            </Array>
          </mxGeometry>
        </mxCell>
        <mxCell id="2EJG6AyKctbjGO9MTDLc-313" value="Marketplace" style="edgeLabel;html=1;align=center;verticalAlign=middle;resizable=0;points=[];" parent="2EJG6AyKctbjGO9MTDLc-294" vertex="1" connectable="0">
          <mxGeometry x="0.4329" y="1" relative="1" as="geometry">
            <mxPoint as="offset" />
          </mxGeometry>
        </mxCell>
        <mxCell id="2EJG6AyKctbjGO9MTDLc-314" style="edgeStyle=orthogonalEdgeStyle;rounded=0;orthogonalLoop=1;jettySize=auto;html=1;entryX=0;entryY=0.5;entryDx=0;entryDy=0;" parent="WIyWlLk6GJQsqaUBKTNV-1" source="2EJG6AyKctbjGO9MTDLc-41" target="2EJG6AyKctbjGO9MTDLc-108" edge="1">
          <mxGeometry relative="1" as="geometry">
            <Array as="points">
              <mxPoint x="50" y="701" />
              <mxPoint x="50" y="1030" />
            </Array>
          </mxGeometry>
        </mxCell>
        <mxCell id="2EJG6AyKctbjGO9MTDLc-41" value="Input" style="rhombus;whiteSpace=wrap;html=1;" parent="WIyWlLk6GJQsqaUBKTNV-1" vertex="1">
          <mxGeometry x="65.99000000000001" y="670.87" width="60.11" height="60" as="geometry" />
        </mxCell>
        <mxCell id="2EJG6AyKctbjGO9MTDLc-272" style="edgeStyle=orthogonalEdgeStyle;rounded=0;orthogonalLoop=1;jettySize=auto;html=1;entryX=0.5;entryY=1;entryDx=0;entryDy=0;" parent="WIyWlLk6GJQsqaUBKTNV-1" source="2EJG6AyKctbjGO9MTDLc-48" target="2EJG6AyKctbjGO9MTDLc-37" edge="1">
          <mxGeometry relative="1" as="geometry">
            <Array as="points">
              <mxPoint x="450" y="660.87" />
              <mxPoint x="246" y="660.87" />
            </Array>
          </mxGeometry>
        </mxCell>
        <mxCell id="2EJG6AyKctbjGO9MTDLc-48" value="processAddUserMoney" style="rounded=1;whiteSpace=wrap;html=1;fontSize=12;glass=0;strokeWidth=1;shadow=0;" parent="WIyWlLk6GJQsqaUBKTNV-1" vertex="1">
          <mxGeometry x="380" y="680.87" width="139.89" height="40" as="geometry" />
        </mxCell>
        <mxCell id="2EJG6AyKctbjGO9MTDLc-288" style="edgeStyle=orthogonalEdgeStyle;rounded=0;orthogonalLoop=1;jettySize=auto;html=1;entryX=0.5;entryY=0;entryDx=0;entryDy=0;" parent="WIyWlLk6GJQsqaUBKTNV-1" source="2EJG6AyKctbjGO9MTDLc-55" target="2EJG6AyKctbjGO9MTDLc-281" edge="1">
          <mxGeometry relative="1" as="geometry" />
        </mxCell>
        <mxCell id="2EJG6AyKctbjGO9MTDLc-55" value="Digital AssetsPage" style="rounded=1;whiteSpace=wrap;html=1;fontSize=12;glass=0;strokeWidth=1;shadow=0;" parent="WIyWlLk6GJQsqaUBKTNV-1" vertex="1">
          <mxGeometry x="186.83999999999997" y="800.87" width="143.74" height="40" as="geometry" />
        </mxCell>
        <mxCell id="2EJG6AyKctbjGO9MTDLc-307" style="edgeStyle=orthogonalEdgeStyle;rounded=0;orthogonalLoop=1;jettySize=auto;html=1;entryX=0.5;entryY=1;entryDx=0;entryDy=0;" parent="WIyWlLk6GJQsqaUBKTNV-1" source="2EJG6AyKctbjGO9MTDLc-62" target="2EJG6AyKctbjGO9MTDLc-70" edge="1">
          <mxGeometry relative="1" as="geometry" />
        </mxCell>
        <mxCell id="2EJG6AyKctbjGO9MTDLc-62" value="processUserBuyProduct" style="rounded=1;whiteSpace=wrap;html=1;fontSize=12;glass=0;strokeWidth=1;shadow=0;" parent="WIyWlLk6GJQsqaUBKTNV-1" vertex="1">
          <mxGeometry x="356.21" y="900.87" width="145" height="40" as="geometry" />
        </mxCell>
        <mxCell id="2EJG6AyKctbjGO9MTDLc-308" style="edgeStyle=orthogonalEdgeStyle;rounded=0;orthogonalLoop=1;jettySize=auto;html=1;" parent="WIyWlLk6GJQsqaUBKTNV-1" source="2EJG6AyKctbjGO9MTDLc-70" target="2EJG6AyKctbjGO9MTDLc-79" edge="1">
          <mxGeometry relative="1" as="geometry" />
        </mxCell>
        <mxCell id="2EJG6AyKctbjGO9MTDLc-311" value="Yes" style="edgeLabel;html=1;align=center;verticalAlign=middle;resizable=0;points=[];" parent="2EJG6AyKctbjGO9MTDLc-308" vertex="1" connectable="0">
          <mxGeometry x="0.0088" y="3" relative="1" as="geometry">
            <mxPoint as="offset" />
          </mxGeometry>
        </mxCell>
        <mxCell id="2EJG6AyKctbjGO9MTDLc-70" value="Valid?" style="rhombus;whiteSpace=wrap;html=1;" parent="WIyWlLk6GJQsqaUBKTNV-1" vertex="1">
          <mxGeometry x="522.5" y="830.87" width="60" height="60" as="geometry" />
        </mxCell>
        <mxCell id="2EJG6AyKctbjGO9MTDLc-297" style="edgeStyle=orthogonalEdgeStyle;rounded=0;orthogonalLoop=1;jettySize=auto;html=1;entryX=1;entryY=0.75;entryDx=0;entryDy=0;" parent="WIyWlLk6GJQsqaUBKTNV-1" source="2EJG6AyKctbjGO9MTDLc-79" target="2EJG6AyKctbjGO9MTDLc-37" edge="1">
          <mxGeometry relative="1" as="geometry">
            <Array as="points">
              <mxPoint x="553" y="630.87" />
            </Array>
          </mxGeometry>
        </mxCell>
        <mxCell id="2EJG6AyKctbjGO9MTDLc-79" value="pageUserTransaction" style="rounded=1;whiteSpace=wrap;html=1;fontSize=12;glass=0;strokeWidth=1;shadow=0;" parent="WIyWlLk6GJQsqaUBKTNV-1" vertex="1">
          <mxGeometry x="480" y="750.87" width="145" height="40" as="geometry" />
        </mxCell>
        <mxCell id="2EJG6AyKctbjGO9MTDLc-282" style="edgeStyle=orthogonalEdgeStyle;rounded=0;orthogonalLoop=1;jettySize=auto;html=1;entryX=0;entryY=0.5;entryDx=0;entryDy=0;" parent="WIyWlLk6GJQsqaUBKTNV-1" source="2EJG6AyKctbjGO9MTDLc-82" target="2EJG6AyKctbjGO9MTDLc-85" edge="1">
          <mxGeometry relative="1" as="geometry" />
        </mxCell>
        <mxCell id="2EJG6AyKctbjGO9MTDLc-82" value="Page Owned Assets" style="rounded=1;whiteSpace=wrap;html=1;fontSize=12;glass=0;strokeWidth=1;shadow=0;" parent="WIyWlLk6GJQsqaUBKTNV-1" vertex="1">
          <mxGeometry x="186.20999999999998" y="750.87" width="145" height="40" as="geometry" />
        </mxCell>
        <mxCell id="2EJG6AyKctbjGO9MTDLc-295" style="edgeStyle=orthogonalEdgeStyle;rounded=0;orthogonalLoop=1;jettySize=auto;html=1;" parent="WIyWlLk6GJQsqaUBKTNV-1" source="2EJG6AyKctbjGO9MTDLc-85" target="2EJG6AyKctbjGO9MTDLc-79" edge="1">
          <mxGeometry relative="1" as="geometry" />
        </mxCell>
        <mxCell id="2EJG6AyKctbjGO9MTDLc-299" style="edgeStyle=orthogonalEdgeStyle;rounded=0;orthogonalLoop=1;jettySize=auto;html=1;" parent="WIyWlLk6GJQsqaUBKTNV-1" source="2EJG6AyKctbjGO9MTDLc-85" target="2EJG6AyKctbjGO9MTDLc-55" edge="1">
          <mxGeometry relative="1" as="geometry">
            <Array as="points">
              <mxPoint x="399" y="820.87" />
            </Array>
          </mxGeometry>
        </mxCell>
        <mxCell id="2EJG6AyKctbjGO9MTDLc-300" value="Marketplace" style="edgeLabel;html=1;align=center;verticalAlign=middle;resizable=0;points=[];" parent="2EJG6AyKctbjGO9MTDLc-299" vertex="1" connectable="0">
          <mxGeometry x="-0.1201" y="-4" relative="1" as="geometry">
            <mxPoint y="4" as="offset" />
          </mxGeometry>
        </mxCell>
        <mxCell id="2EJG6AyKctbjGO9MTDLc-85" value="Input" style="rhombus;whiteSpace=wrap;html=1;" parent="WIyWlLk6GJQsqaUBKTNV-1" vertex="1">
          <mxGeometry x="369" y="740.87" width="60" height="60" as="geometry" />
        </mxCell>
        <mxCell id="2EJG6AyKctbjGO9MTDLc-316" style="edgeStyle=orthogonalEdgeStyle;rounded=0;orthogonalLoop=1;jettySize=auto;html=1;" parent="WIyWlLk6GJQsqaUBKTNV-1" source="2EJG6AyKctbjGO9MTDLc-108" target="2EJG6AyKctbjGO9MTDLc-163" edge="1">
          <mxGeometry relative="1" as="geometry" />
        </mxCell>
        <mxCell id="2EJG6AyKctbjGO9MTDLc-108" value="Logout" style="rounded=1;whiteSpace=wrap;html=1;" parent="WIyWlLk6GJQsqaUBKTNV-1" vertex="1">
          <mxGeometry x="369" y="1010" width="90" height="40" as="geometry" />
        </mxCell>
        <mxCell id="2EJG6AyKctbjGO9MTDLc-138" style="edgeStyle=orthogonalEdgeStyle;rounded=0;orthogonalLoop=1;jettySize=auto;html=1;entryX=0.5;entryY=0;entryDx=0;entryDy=0;" parent="WIyWlLk6GJQsqaUBKTNV-1" source="2EJG6AyKctbjGO9MTDLc-115" target="2EJG6AyKctbjGO9MTDLc-120" edge="1">
          <mxGeometry relative="1" as="geometry" />
        </mxCell>
        <mxCell id="2EJG6AyKctbjGO9MTDLc-115" value="Input&lt;br&gt;-Username&lt;br&gt;-Password" style="shape=parallelogram;perimeter=parallelogramPerimeter;whiteSpace=wrap;html=1;fixedSize=1;" parent="WIyWlLk6GJQsqaUBKTNV-1" vertex="1">
          <mxGeometry x="26.100000000000442" y="90" width="120" height="60" as="geometry" />
        </mxCell>
        <mxCell id="2EJG6AyKctbjGO9MTDLc-137" style="edgeStyle=orthogonalEdgeStyle;rounded=0;orthogonalLoop=1;jettySize=auto;html=1;" parent="WIyWlLk6GJQsqaUBKTNV-1" source="2EJG6AyKctbjGO9MTDLc-118" target="2EJG6AyKctbjGO9MTDLc-115" edge="1">
          <mxGeometry relative="1" as="geometry" />
        </mxCell>
        <mxCell id="2EJG6AyKctbjGO9MTDLc-118" value="Admin Login Page" style="rounded=1;whiteSpace=wrap;html=1;fontSize=12;glass=0;strokeWidth=1;shadow=0;" parent="WIyWlLk6GJQsqaUBKTNV-1" vertex="1">
          <mxGeometry x="236.21000000000046" y="90" width="120" height="40" as="geometry" />
        </mxCell>
        <mxCell id="2EJG6AyKctbjGO9MTDLc-131" style="edgeStyle=orthogonalEdgeStyle;rounded=0;orthogonalLoop=1;jettySize=auto;html=1;" parent="WIyWlLk6GJQsqaUBKTNV-1" source="2EJG6AyKctbjGO9MTDLc-120" target="2EJG6AyKctbjGO9MTDLc-122" edge="1">
          <mxGeometry relative="1" as="geometry" />
        </mxCell>
        <mxCell id="2EJG6AyKctbjGO9MTDLc-120" value="processUserLogin" style="rounded=1;whiteSpace=wrap;html=1;fontSize=12;glass=0;strokeWidth=1;shadow=0;" parent="WIyWlLk6GJQsqaUBKTNV-1" vertex="1">
          <mxGeometry x="26.100000000000442" y="190" width="120" height="40" as="geometry" />
        </mxCell>
        <mxCell id="2EJG6AyKctbjGO9MTDLc-132" style="edgeStyle=orthogonalEdgeStyle;rounded=0;orthogonalLoop=1;jettySize=auto;html=1;entryX=0.5;entryY=1;entryDx=0;entryDy=0;" parent="WIyWlLk6GJQsqaUBKTNV-1" source="2EJG6AyKctbjGO9MTDLc-122" target="2EJG6AyKctbjGO9MTDLc-118" edge="1">
          <mxGeometry relative="1" as="geometry" />
        </mxCell>
        <mxCell id="2EJG6AyKctbjGO9MTDLc-133" value="No" style="edgeLabel;html=1;align=center;verticalAlign=middle;resizable=0;points=[];" parent="2EJG6AyKctbjGO9MTDLc-132" vertex="1" connectable="0">
          <mxGeometry x="-0.0568" relative="1" as="geometry">
            <mxPoint as="offset" />
          </mxGeometry>
        </mxCell>
        <mxCell id="oSRfJjsaRmlaMst2_6_6-0" style="edgeStyle=orthogonalEdgeStyle;rounded=0;orthogonalLoop=1;jettySize=auto;html=1;" edge="1" parent="WIyWlLk6GJQsqaUBKTNV-1" source="2EJG6AyKctbjGO9MTDLc-122" target="2EJG6AyKctbjGO9MTDLc-124">
          <mxGeometry relative="1" as="geometry">
            <Array as="points">
              <mxPoint x="296" y="260" />
              <mxPoint x="66" y="260" />
            </Array>
          </mxGeometry>
        </mxCell>
        <mxCell id="2EJG6AyKctbjGO9MTDLc-122" value="Valid?" style="rhombus;whiteSpace=wrap;html=1;shadow=0;fontFamily=Helvetica;fontSize=12;align=center;strokeWidth=1;spacing=6;spacingTop=-4;" parent="WIyWlLk6GJQsqaUBKTNV-1" vertex="1">
          <mxGeometry x="246.21000000000046" y="170" width="100" height="80" as="geometry" />
        </mxCell>
        <mxCell id="2EJG6AyKctbjGO9MTDLc-175" style="edgeStyle=orthogonalEdgeStyle;rounded=0;orthogonalLoop=1;jettySize=auto;html=1;" parent="WIyWlLk6GJQsqaUBKTNV-1" source="2EJG6AyKctbjGO9MTDLc-124" target="2EJG6AyKctbjGO9MTDLc-128" edge="1">
          <mxGeometry relative="1" as="geometry" />
        </mxCell>
        <mxCell id="2EJG6AyKctbjGO9MTDLc-124" value="Admin Page" style="rounded=1;whiteSpace=wrap;html=1;fontSize=12;glass=0;strokeWidth=1;shadow=0;" parent="WIyWlLk6GJQsqaUBKTNV-1" vertex="1">
          <mxGeometry x="26.119999999999983" y="290" width="120" height="40" as="geometry" />
        </mxCell>
        <mxCell id="2EJG6AyKctbjGO9MTDLc-318" style="edgeStyle=orthogonalEdgeStyle;rounded=0;orthogonalLoop=1;jettySize=auto;html=1;entryX=0;entryY=0.75;entryDx=0;entryDy=0;" parent="WIyWlLk6GJQsqaUBKTNV-1" source="2EJG6AyKctbjGO9MTDLc-128" target="2EJG6AyKctbjGO9MTDLc-108" edge="1">
          <mxGeometry relative="1" as="geometry">
            <Array as="points">
              <mxPoint x="10" y="359" />
              <mxPoint x="10" y="1040" />
            </Array>
          </mxGeometry>
        </mxCell>
        <mxCell id="2EJG6AyKctbjGO9MTDLc-331" style="edgeStyle=orthogonalEdgeStyle;rounded=0;orthogonalLoop=1;jettySize=auto;html=1;entryX=0;entryY=0.5;entryDx=0;entryDy=0;" parent="WIyWlLk6GJQsqaUBKTNV-1" source="2EJG6AyKctbjGO9MTDLc-128" target="2EJG6AyKctbjGO9MTDLc-322" edge="1">
          <mxGeometry relative="1" as="geometry">
            <Array as="points">
              <mxPoint x="110.02000000000001" y="388.87" />
              <mxPoint x="110.02000000000001" y="367.87" />
            </Array>
          </mxGeometry>
        </mxCell>
        <mxCell id="2EJG6AyKctbjGO9MTDLc-343" style="edgeStyle=orthogonalEdgeStyle;rounded=0;orthogonalLoop=1;jettySize=auto;html=1;entryX=0;entryY=0.5;entryDx=0;entryDy=0;" parent="WIyWlLk6GJQsqaUBKTNV-1" source="2EJG6AyKctbjGO9MTDLc-128" target="2EJG6AyKctbjGO9MTDLc-332" edge="1">
          <mxGeometry relative="1" as="geometry">
            <Array as="points">
              <mxPoint x="73.02000000000001" y="466.87" />
            </Array>
          </mxGeometry>
        </mxCell>
        <mxCell id="2EJG6AyKctbjGO9MTDLc-347" style="edgeStyle=orthogonalEdgeStyle;rounded=0;orthogonalLoop=1;jettySize=auto;html=1;entryX=1;entryY=0.5;entryDx=0;entryDy=0;" parent="WIyWlLk6GJQsqaUBKTNV-1" source="2EJG6AyKctbjGO9MTDLc-128" target="2EJG6AyKctbjGO9MTDLc-142" edge="1">
          <mxGeometry relative="1" as="geometry">
            <Array as="points">
              <mxPoint x="60.02" y="560.87" />
              <mxPoint x="346.02" y="560.87" />
              <mxPoint x="346.02" y="309.87" />
            </Array>
          </mxGeometry>
        </mxCell>
        <mxCell id="2EJG6AyKctbjGO9MTDLc-348" value="Delete" style="edgeLabel;html=1;align=center;verticalAlign=middle;resizable=0;points=[];" parent="2EJG6AyKctbjGO9MTDLc-347" vertex="1" connectable="0">
          <mxGeometry x="-0.2069" y="-2" relative="1" as="geometry">
            <mxPoint as="offset" />
          </mxGeometry>
        </mxCell>
        <mxCell id="2EJG6AyKctbjGO9MTDLc-128" value="Input" style="rhombus;whiteSpace=wrap;html=1;" parent="WIyWlLk6GJQsqaUBKTNV-1" vertex="1">
          <mxGeometry x="46.12" y="360.87" width="53.9" height="55" as="geometry" />
        </mxCell>
        <mxCell id="2EJG6AyKctbjGO9MTDLc-262" style="edgeStyle=orthogonalEdgeStyle;rounded=0;orthogonalLoop=1;jettySize=auto;html=1;" parent="WIyWlLk6GJQsqaUBKTNV-1" source="2EJG6AyKctbjGO9MTDLc-142" target="2EJG6AyKctbjGO9MTDLc-124" edge="1">
          <mxGeometry relative="1" as="geometry" />
        </mxCell>
        <mxCell id="2EJG6AyKctbjGO9MTDLc-142" value="processCrud" style="rounded=1;whiteSpace=wrap;html=1;" parent="WIyWlLk6GJQsqaUBKTNV-1" vertex="1">
          <mxGeometry x="226.23" y="290" width="100" height="40" as="geometry" />
        </mxCell>
        <mxCell id="2EJG6AyKctbjGO9MTDLc-163" value="End" style="ellipse;whiteSpace=wrap;html=1;" parent="WIyWlLk6GJQsqaUBKTNV-1" vertex="1">
          <mxGeometry x="369" y="1100" width="90" height="50" as="geometry" />
        </mxCell>
        <mxCell id="2EJG6AyKctbjGO9MTDLc-256" style="edgeStyle=orthogonalEdgeStyle;rounded=0;orthogonalLoop=1;jettySize=auto;html=1;entryX=1;entryY=0.5;entryDx=0;entryDy=0;" parent="WIyWlLk6GJQsqaUBKTNV-1" source="2EJG6AyKctbjGO9MTDLc-187" target="2EJG6AyKctbjGO9MTDLc-142" edge="1">
          <mxGeometry relative="1" as="geometry">
            <Array as="points">
              <mxPoint x="346.22999999999996" y="367.87" />
              <mxPoint x="346.22999999999996" y="309.87" />
            </Array>
          </mxGeometry>
        </mxCell>
        <mxCell id="2EJG6AyKctbjGO9MTDLc-257" style="edgeStyle=orthogonalEdgeStyle;rounded=0;orthogonalLoop=1;jettySize=auto;html=1;entryX=1;entryY=0.5;entryDx=0;entryDy=0;" parent="WIyWlLk6GJQsqaUBKTNV-1" source="2EJG6AyKctbjGO9MTDLc-187" target="2EJG6AyKctbjGO9MTDLc-142" edge="1">
          <mxGeometry relative="1" as="geometry">
            <Array as="points">
              <mxPoint x="346.22999999999996" y="367.87" />
              <mxPoint x="346.22999999999996" y="309.87" />
            </Array>
          </mxGeometry>
        </mxCell>
        <mxCell id="2EJG6AyKctbjGO9MTDLc-187" value="Update Product Data Page" style="rounded=1;whiteSpace=wrap;html=1;" parent="WIyWlLk6GJQsqaUBKTNV-1" vertex="1">
          <mxGeometry x="226.23" y="350" width="100" height="35" as="geometry" />
        </mxCell>
        <mxCell id="2EJG6AyKctbjGO9MTDLc-258" style="edgeStyle=orthogonalEdgeStyle;rounded=0;orthogonalLoop=1;jettySize=auto;html=1;entryX=1;entryY=0.5;entryDx=0;entryDy=0;" parent="WIyWlLk6GJQsqaUBKTNV-1" source="2EJG6AyKctbjGO9MTDLc-182" target="2EJG6AyKctbjGO9MTDLc-142" edge="1">
          <mxGeometry relative="1" as="geometry">
            <Array as="points">
              <mxPoint x="346.22999999999996" y="417.87" />
              <mxPoint x="346.22999999999996" y="309.87" />
            </Array>
          </mxGeometry>
        </mxCell>
        <mxCell id="2EJG6AyKctbjGO9MTDLc-182" value="Update User Data Page" style="rounded=1;whiteSpace=wrap;html=1;" parent="WIyWlLk6GJQsqaUBKTNV-1" vertex="1">
          <mxGeometry x="226.23" y="400" width="100" height="35" as="geometry" />
        </mxCell>
        <mxCell id="2EJG6AyKctbjGO9MTDLc-260" style="edgeStyle=orthogonalEdgeStyle;rounded=0;orthogonalLoop=1;jettySize=auto;html=1;entryX=1;entryY=0.5;entryDx=0;entryDy=0;" parent="WIyWlLk6GJQsqaUBKTNV-1" source="2EJG6AyKctbjGO9MTDLc-205" target="2EJG6AyKctbjGO9MTDLc-142" edge="1">
          <mxGeometry relative="1" as="geometry">
            <Array as="points">
              <mxPoint x="346.22999999999996" y="464.87" />
              <mxPoint x="346.22999999999996" y="309.87" />
            </Array>
          </mxGeometry>
        </mxCell>
        <mxCell id="2EJG6AyKctbjGO9MTDLc-205" value="Create Product Data Page" style="rounded=1;whiteSpace=wrap;html=1;" parent="WIyWlLk6GJQsqaUBKTNV-1" vertex="1">
          <mxGeometry x="226.23" y="447.5" width="100" height="35" as="geometry" />
        </mxCell>
        <mxCell id="2EJG6AyKctbjGO9MTDLc-261" style="edgeStyle=orthogonalEdgeStyle;rounded=0;orthogonalLoop=1;jettySize=auto;html=1;entryX=1;entryY=0.5;entryDx=0;entryDy=0;" parent="WIyWlLk6GJQsqaUBKTNV-1" source="2EJG6AyKctbjGO9MTDLc-206" target="2EJG6AyKctbjGO9MTDLc-142" edge="1">
          <mxGeometry relative="1" as="geometry">
            <Array as="points">
              <mxPoint x="346.22999999999996" y="512.87" />
              <mxPoint x="346.22999999999996" y="309.87" />
            </Array>
          </mxGeometry>
        </mxCell>
        <mxCell id="2EJG6AyKctbjGO9MTDLc-206" value="Create User Data Page" style="rounded=1;whiteSpace=wrap;html=1;" parent="WIyWlLk6GJQsqaUBKTNV-1" vertex="1">
          <mxGeometry x="226.23" y="495" width="100" height="35" as="geometry" />
        </mxCell>
        <mxCell id="2EJG6AyKctbjGO9MTDLc-237" style="edgeStyle=orthogonalEdgeStyle;rounded=0;orthogonalLoop=1;jettySize=auto;html=1;exitX=0.5;exitY=1;exitDx=0;exitDy=0;" parent="WIyWlLk6GJQsqaUBKTNV-1" edge="1">
          <mxGeometry relative="1" as="geometry">
            <mxPoint x="256.21000000000004" y="570.0000000000001" as="sourcePoint" />
            <mxPoint x="256.21000000000004" y="570.0000000000001" as="targetPoint" />
          </mxGeometry>
        </mxCell>
        <mxCell id="2EJG6AyKctbjGO9MTDLc-242" style="edgeStyle=orthogonalEdgeStyle;rounded=0;orthogonalLoop=1;jettySize=auto;html=1;" parent="WIyWlLk6GJQsqaUBKTNV-1" source="2EJG6AyKctbjGO9MTDLc-1" target="WIyWlLk6GJQsqaUBKTNV-3" edge="1">
          <mxGeometry relative="1" as="geometry" />
        </mxCell>
        <mxCell id="2EJG6AyKctbjGO9MTDLc-266" style="edgeStyle=orthogonalEdgeStyle;rounded=0;orthogonalLoop=1;jettySize=auto;html=1;" parent="WIyWlLk6GJQsqaUBKTNV-1" source="2EJG6AyKctbjGO9MTDLc-1" target="2EJG6AyKctbjGO9MTDLc-118" edge="1">
          <mxGeometry relative="1" as="geometry" />
        </mxCell>
        <mxCell id="2EJG6AyKctbjGO9MTDLc-1" value="Start" style="ellipse;whiteSpace=wrap;html=1;" parent="WIyWlLk6GJQsqaUBKTNV-1" vertex="1">
          <mxGeometry x="369" y="10" width="90" height="50" as="geometry" />
        </mxCell>
        <mxCell id="2EJG6AyKctbjGO9MTDLc-287" style="edgeStyle=orthogonalEdgeStyle;rounded=0;orthogonalLoop=1;jettySize=auto;html=1;" parent="WIyWlLk6GJQsqaUBKTNV-1" source="2EJG6AyKctbjGO9MTDLc-281" target="2EJG6AyKctbjGO9MTDLc-62" edge="1">
          <mxGeometry relative="1" as="geometry" />
        </mxCell>
        <mxCell id="2EJG6AyKctbjGO9MTDLc-291" value="Buy" style="edgeLabel;html=1;align=center;verticalAlign=middle;resizable=0;points=[];" parent="2EJG6AyKctbjGO9MTDLc-287" vertex="1" connectable="0">
          <mxGeometry x="-0.1889" y="-2" relative="1" as="geometry">
            <mxPoint y="-2" as="offset" />
          </mxGeometry>
        </mxCell>
        <mxCell id="2EJG6AyKctbjGO9MTDLc-304" style="edgeStyle=orthogonalEdgeStyle;rounded=0;orthogonalLoop=1;jettySize=auto;html=1;entryX=1;entryY=0.5;entryDx=0;entryDy=0;" parent="WIyWlLk6GJQsqaUBKTNV-1" source="2EJG6AyKctbjGO9MTDLc-281" target="2EJG6AyKctbjGO9MTDLc-37" edge="1">
          <mxGeometry relative="1" as="geometry">
            <Array as="points">
              <mxPoint x="249" y="960.87" />
              <mxPoint x="650" y="960.87" />
              <mxPoint x="650" y="620.87" />
            </Array>
          </mxGeometry>
        </mxCell>
        <mxCell id="2EJG6AyKctbjGO9MTDLc-306" value="Back" style="edgeLabel;html=1;align=center;verticalAlign=middle;resizable=0;points=[];" parent="2EJG6AyKctbjGO9MTDLc-304" vertex="1" connectable="0">
          <mxGeometry x="-0.7898" relative="1" as="geometry">
            <mxPoint as="offset" />
          </mxGeometry>
        </mxCell>
        <mxCell id="2EJG6AyKctbjGO9MTDLc-281" value="Input" style="rhombus;whiteSpace=wrap;html=1;" parent="WIyWlLk6GJQsqaUBKTNV-1" vertex="1">
          <mxGeometry x="219.39" y="890.87" width="60" height="60" as="geometry" />
        </mxCell>
        <mxCell id="2EJG6AyKctbjGO9MTDLc-309" style="edgeStyle=orthogonalEdgeStyle;rounded=0;orthogonalLoop=1;jettySize=auto;html=1;entryX=0.674;entryY=1.01;entryDx=0;entryDy=0;entryPerimeter=0;" parent="WIyWlLk6GJQsqaUBKTNV-1" source="2EJG6AyKctbjGO9MTDLc-70" target="2EJG6AyKctbjGO9MTDLc-55" edge="1">
          <mxGeometry relative="1" as="geometry" />
        </mxCell>
        <mxCell id="2EJG6AyKctbjGO9MTDLc-310" value="No" style="edgeLabel;html=1;align=center;verticalAlign=middle;resizable=0;points=[];" parent="2EJG6AyKctbjGO9MTDLc-309" vertex="1" connectable="0">
          <mxGeometry x="-0.2887" y="4" relative="1" as="geometry">
            <mxPoint x="1" y="-4" as="offset" />
          </mxGeometry>
        </mxCell>
        <mxCell id="2EJG6AyKctbjGO9MTDLc-317" style="edgeStyle=orthogonalEdgeStyle;rounded=0;orthogonalLoop=1;jettySize=auto;html=1;entryX=0.44;entryY=-0.022;entryDx=0;entryDy=0;entryPerimeter=0;" parent="WIyWlLk6GJQsqaUBKTNV-1" source="2EJG6AyKctbjGO9MTDLc-79" target="2EJG6AyKctbjGO9MTDLc-82" edge="1">
          <mxGeometry relative="1" as="geometry">
            <Array as="points">
              <mxPoint x="540" y="731" />
              <mxPoint x="250" y="731" />
            </Array>
          </mxGeometry>
        </mxCell>
        <mxCell id="2EJG6AyKctbjGO9MTDLc-326" style="edgeStyle=orthogonalEdgeStyle;rounded=0;orthogonalLoop=1;jettySize=auto;html=1;entryX=0;entryY=0.5;entryDx=0;entryDy=0;" parent="WIyWlLk6GJQsqaUBKTNV-1" source="2EJG6AyKctbjGO9MTDLc-322" target="2EJG6AyKctbjGO9MTDLc-187" edge="1">
          <mxGeometry relative="1" as="geometry" />
        </mxCell>
        <mxCell id="2EJG6AyKctbjGO9MTDLc-330" value="Product" style="edgeLabel;html=1;align=center;verticalAlign=middle;resizable=0;points=[];" parent="2EJG6AyKctbjGO9MTDLc-326" vertex="1" connectable="0">
          <mxGeometry x="-0.3142" relative="1" as="geometry">
            <mxPoint x="3" as="offset" />
          </mxGeometry>
        </mxCell>
        <mxCell id="2EJG6AyKctbjGO9MTDLc-328" style="edgeStyle=orthogonalEdgeStyle;rounded=0;orthogonalLoop=1;jettySize=auto;html=1;entryX=0;entryY=0.5;entryDx=0;entryDy=0;" parent="WIyWlLk6GJQsqaUBKTNV-1" source="2EJG6AyKctbjGO9MTDLc-322" target="2EJG6AyKctbjGO9MTDLc-182" edge="1">
          <mxGeometry relative="1" as="geometry">
            <Array as="points">
              <mxPoint x="148.01999999999998" y="417.87" />
            </Array>
          </mxGeometry>
        </mxCell>
        <mxCell id="2EJG6AyKctbjGO9MTDLc-329" value="User" style="edgeLabel;html=1;align=center;verticalAlign=middle;resizable=0;points=[];" parent="2EJG6AyKctbjGO9MTDLc-328" vertex="1" connectable="0">
          <mxGeometry x="0.0357" y="1" relative="1" as="geometry">
            <mxPoint as="offset" />
          </mxGeometry>
        </mxCell>
        <mxCell id="2EJG6AyKctbjGO9MTDLc-322" value="Update" style="rhombus;whiteSpace=wrap;html=1;" parent="WIyWlLk6GJQsqaUBKTNV-1" vertex="1">
          <mxGeometry x="120.02" y="339.13" width="56.74" height="56.74" as="geometry" />
        </mxCell>
        <mxCell id="2EJG6AyKctbjGO9MTDLc-340" style="edgeStyle=orthogonalEdgeStyle;rounded=0;orthogonalLoop=1;jettySize=auto;html=1;entryX=0;entryY=0.5;entryDx=0;entryDy=0;" parent="WIyWlLk6GJQsqaUBKTNV-1" source="2EJG6AyKctbjGO9MTDLc-332" target="2EJG6AyKctbjGO9MTDLc-205" edge="1">
          <mxGeometry relative="1" as="geometry" />
        </mxCell>
        <mxCell id="2EJG6AyKctbjGO9MTDLc-342" value="Product" style="edgeLabel;html=1;align=center;verticalAlign=middle;resizable=0;points=[];" parent="2EJG6AyKctbjGO9MTDLc-340" vertex="1" connectable="0">
          <mxGeometry x="-0.2653" relative="1" as="geometry">
            <mxPoint as="offset" />
          </mxGeometry>
        </mxCell>
        <mxCell id="2EJG6AyKctbjGO9MTDLc-344" style="edgeStyle=orthogonalEdgeStyle;rounded=0;orthogonalLoop=1;jettySize=auto;html=1;entryX=0;entryY=0.5;entryDx=0;entryDy=0;" parent="WIyWlLk6GJQsqaUBKTNV-1" source="2EJG6AyKctbjGO9MTDLc-332" target="2EJG6AyKctbjGO9MTDLc-206" edge="1">
          <mxGeometry relative="1" as="geometry">
            <Array as="points">
              <mxPoint x="138.01999999999998" y="512.87" />
            </Array>
          </mxGeometry>
        </mxCell>
        <mxCell id="2EJG6AyKctbjGO9MTDLc-345" value="User" style="edgeLabel;html=1;align=center;verticalAlign=middle;resizable=0;points=[];" parent="2EJG6AyKctbjGO9MTDLc-344" vertex="1" connectable="0">
          <mxGeometry x="0.0924" y="2" relative="1" as="geometry">
            <mxPoint as="offset" />
          </mxGeometry>
        </mxCell>
        <mxCell id="2EJG6AyKctbjGO9MTDLc-332" value="Create" style="rhombus;whiteSpace=wrap;html=1;" parent="WIyWlLk6GJQsqaUBKTNV-1" vertex="1">
          <mxGeometry x="109.38000000000001" y="438.26" width="56.74" height="56.74" as="geometry" />
        </mxCell>
      </root>
    </mxGraphModel>
  </diagram>
</mxfile>
